# xmcd
#
# Track frame offsets:
#	180
#	26438
#	54511
#	76936
#
# Disc length: 1250 seconds
#
# Revision: 0
# Processed by: cddbd v1.5.1PL0 Copyright (c) Steve Scherf et al.
# Submitted via: audiograbber 1.83.01
#
DISCID=2304e004
DTITLE=Stars and Bars - ...one more time
DYEAR=1996
DGENRE=R&B
TTITLE0=One Way Out
TTITLE1=Graveyard Train
TTITLE2=Call Me The Breeze
TTITLE3=Riding Home
EXTD=Blues, Boogie and Southern Rock
EXTT0=
EXTT1=
EXTT2=
EXTT3=
PLAYORDER=
